# xmcd
# 
# Track frame offsets:
#     150
#     20690
#     39043
#     59636
#     81536
#     100436
#     123686
#     150130
#     171344
#     192801
#     212125
#     234518
#     252518
#     278981
# 
# Disc length: 3985
# 
# Revision: 0
# Processed by: cddbd v1.5.2PL0 Copyright (c) Steve Scherf et al.
# Submitted via: fre:ac v1.0.17
# 
DISCID=c70f8f0e
DTITLE=คาราบาว - กีต้าร์บาว
DYEAR=2544
DGENRE=Country
TTITLE0=คนหนังเหนียว
TTITLE1=ลูกหิน
TTITLE2=นางงามตู้กระจก
TTITLE3=แม่สาย
TTITLE4=บาปบริสุทธิ์
TTITLE5=ลูกบ้างเน้อ
TTITLE6=สังกะสี
TTITLE7=ควายกว่า
TTITLE8=มาลัย
TTITLE9=คนขี้โกง
TTITLE10=ลมพัดใจเพ
TTITLE11=รักคุณเท่าฟ้า
TTITLE12=เฒ่าทะเล
TTITLE13=แบบหมาหมา
EXTD=
EXTT0=
EXTT1=
EXTT2=
EXTT3=
EXTT4=
EXTT5=
EXTT6=
EXTT7=
EXTT8=
EXTT9=
EXTT10=
EXTT11=
EXTT12=
EXTT13=
PLAYORDER=
